PathFileType	4	(X/Y/Z)	OpenSim_Sub11_CSPreOp_Magnet.trc
DataRate	CameraRate	NumFrames	NumMarkers	Units	OrigDataRate	OrigDataStartFrame	OrigNumFrames
100	100	26	8	m	100	2314	3701
Frame#	Time	torso_imu_offset_imu	pelvis_imu_offset_imu	tibia_r_imu_offset_imu	femur_r_imu_offset_imu	tibia_l_imu_offset_imu	femur_l_imu_offset_imu	toes_r_imu_offset_imu	toes_l_imu_offset_imu
				X1	Y1	Z1	X2	Y2	Z2	X3	Y3	Z3	X4	Y4	Z4	X5	Y5	Z5	X6	Y6	Z6	X7	Y7	Z7	X8		Y8	Z8	

2314	23.13000000	-0.93237300	-0.19287100	0.04199200	-0.51196300	0.07690400	-0.67431600	-0.45898400	-0.64453100	-0.31738300	-0.52954100	-0.66137700	0.01538100	-0.69970700	0.43237300	0.19653300	-0.72460900	0.24804700	0.49682600	-0.66870100	-0.47607400	-0.40429700	-0.78930700	0.00634800	-0.31079100
2315	23.14000000	-0.93212900	-0.19506800	0.03759800	-0.51293900	0.08447300	-0.68212900	-0.45654300	-0.65063500	-0.31933600	-0.54126000	-0.65405300	0.00610400	-0.70385700	0.43383800	0.19189500	-0.72631800	0.25024400	0.48999000	-0.67529300	-0.47900400	-0.40380900	-0.79296900	0.00683600	-0.31713900
2316	23.15000000	-0.94091800	-0.19506800	0.04199200	-0.50878900	0.09130900	-0.68188500	-0.44604500	-0.65283200	-0.31713900	-0.54541000	-0.64331100	0.00024400	-0.70117200	0.43725600	0.19091800	-0.72119100	0.25537100	0.49365200	-0.67578100	-0.47876000	-0.39648400	-0.78881800	0.00878900	-0.31884800
2317	23.16000000	-0.93237300	-0.19067400	0.04663100	-0.51782200	0.09472700	-0.67480500	-0.43554700	-0.65698200	-0.32812500	-0.56005900	-0.63891600	0.00366200	-0.70703100	0.43481400	0.19995100	-0.72412100	0.25317400	0.50463900	-0.68896500	-0.48779300	-0.37548800	-0.79663100	0.00293000	-0.30883800
2318	23.17000000	-0.92993200	-0.19702100	0.04663100	-0.51367200	0.10302700	-0.67944300	-0.42260700	-0.66308600	-0.32568400	-0.56616200	-0.62329100	-0.00537100	-0.70190400	0.44067400	0.19506800	-0.71850600	0.26293900	0.50317400	-0.69018600	-0.48193400	-0.36792000	-0.79443400	0.01001000	-0.31030300
2319	23.18000000	-0.94091800	-0.19506800	0.04882800	-0.50854500	0.10400400	-0.68408200	-0.41430700	-0.66308600	-0.32788100	-0.57568400	-0.62085000	-0.00683600	-0.70092800	0.43261700	0.19409200	-0.71289100	0.26245100	0.50268600	-0.69409200	-0.49243200	-0.35986300	-0.79467800	-0.00073200	-0.31225600
2320	23.19000000	-0.93432600	-0.19946300	0.05346700	-0.51025400	0.11645500	-0.68408200	-0.40771500	-0.67578100	-0.33203100	-0.58447300	-0.60473600	-0.01269500	-0.70239300	0.43701200	0.19384800	-0.71044900	0.27319300	0.50341800	-0.70141600	-0.49536100	-0.34716800	-0.79687500	0.00146500	-0.31054700
2321	23.20000000	-0.93432600	-0.19946300	0.05346700	-0.51611300	0.12280300	-0.68579100	-0.38647500	-0.68188500	-0.32714800	-0.60205100	-0.58960000	-0.01001000	-0.70874000	0.43774400	0.19848600	-0.71850600	0.27880900	0.50610400	-0.71508800	-0.49438500	-0.32861300	-0.80517600	0.00293000	-0.30981400
2322	23.21000000	-0.92749000	-0.20141600	0.04882800	-0.51977500	0.12817400	-0.67602500	-0.37793000	-0.69018600	-0.32006800	-0.61792000	-0.57836900	-0.00341800	-0.71557600	0.43530300	0.20874000	-0.71801800	0.28320300	0.51879900	-0.72192400	-0.49951200	-0.30395500	-0.80883800	0.00366200	-0.30053700
2323	23.22000000	-0.93408200	-0.20581100	0.04882800	-0.51342800	0.13330100	-0.67773400	-0.36499000	-0.70068400	-0.31982400	-0.62036100	-0.56347700	-0.00415000	-0.70727500	0.43994100	0.20947300	-0.71069300	0.28857400	0.51660200	-0.72216800	-0.49877900	-0.28833000	-0.80664100	0.00537100	-0.29980500
2324	23.23000000	-0.92993200	-0.19921900	0.04882800	-0.50488300	0.13696300	-0.68676800	-0.35644500	-0.70483400	-0.30859400	-0.62817400	-0.55639600	-0.01171900	-0.70239300	0.43261700	0.20410200	-0.70434600	0.28808600	0.51001000	-0.72094700	-0.50952100	-0.27807600	-0.79882800	-0.00317400	-0.30786100
2325	23.24000000	-0.93188500	-0.20800800	0.04882800	-0.50122100	0.13281200	-0.67529300	-0.34375000	-0.71313500	-0.31274400	-0.63134800	-0.55273400	-0.00341800	-0.69824200	0.42553700	0.21679700	-0.69751000	0.28247100	0.52441400	-0.72021500	-0.52148400	-0.25244100	-0.79418900	-0.01196300	-0.29345700
2326	23.25000000	-0.92968800	-0.20581100	0.05346700	-0.50366200	0.14941400	-0.67968800	-0.33300800	-0.72168000	-0.30566400	-0.64355500	-0.52587900	-0.00463900	-0.70190400	0.43823200	0.21752900	-0.69824200	0.29956100	0.52539100	-0.72656200	-0.51440400	-0.23413100	-0.79882800	0.00122100	-0.29589800
2327	23.26000000	-0.93383800	-0.21020500	0.05786100	-0.49243200	0.14941400	-0.68212900	-0.32251000	-0.72168000	-0.30127000	-0.63867200	-0.52124000	-0.00512700	-0.69043000	0.43237300	0.21704100	-0.68627900	0.29736300	0.52246100	-0.71533200	-0.52392600	-0.22143600	-0.78784200	-0.00805700	-0.29077100
2328	23.27000000	-0.93383800	-0.20800800	0.05786100	-0.50390600	0.14550800	-0.68310500	-0.31372100	-0.73193400	-0.29174800	-0.66162100	-0.51660200	-0.00708000	-0.70312500	0.42846700	0.21801800	-0.69897500	0.29492200	0.52392600	-0.72949200	-0.54028300	-0.20776400	-0.80444300	-0.01098600	-0.29248000
2329	23.28000000	-0.92724600	-0.20800800	0.05346700	-0.49804700	0.15625000	-0.68579100	-0.29907200	-0.73193400	-0.30078100	-0.66162100	-0.50195300	-0.00439500	-0.69726600	0.43603500	0.21533200	-0.69067400	0.30249000	0.53002900	-0.72168000	-0.54248000	-0.19555700	-0.79834000	-0.00830100	-0.29321300
2330	23.29000000	-0.93603500	-0.21460000	0.06469700	-0.49780300	0.14428700	-0.68261700	-0.28637700	-0.73828100	-0.29614300	-0.67065400	-0.50878900	-0.00195300	-0.70336900	0.42260700	0.22192400	-0.69140600	0.28906200	0.53320300	-0.72070300	-0.56274400	-0.18652300	-0.80346700	-0.02661100	-0.28637700
2331	23.30000000	-0.93383800	-0.21020500	0.07153300	-0.49072300	0.15991200	-0.68115200	-0.28637700	-0.74023400	-0.29150400	-0.67016600	-0.48364300	0.00195300	-0.69311500	0.43579100	0.22802700	-0.68505900	0.30322300	0.53930700	-0.70996100	-0.55004900	-0.18383800	-0.79663100	-0.00878900	-0.28271500
2332	23.31000000	-0.93164100	-0.21460000	0.06250000	-0.49487300	0.16333000	-0.68579100	-0.28418000	-0.74023400	-0.29370100	-0.67919900	-0.47753900	-0.00634800	-0.69751000	0.43481400	0.22485400	-0.68432600	0.29809600	0.53759800	-0.70825200	-0.55957000	-0.19531200	-0.80200200	-0.01635700	-0.28637700
2333	23.32000000	-0.92285200	-0.21215800	0.06469700	-0.49023400	0.17700200	-0.68481400	-0.28442400	-0.73608400	-0.29834000	-0.67968800	-0.46167000	-0.00488300	-0.69458000	0.44799800	0.22753900	-0.67797900	0.30957000	0.54516600	-0.70092800	-0.54834000	-0.19848600	-0.79760700	-0.00390600	-0.28149400
2334	23.33000000	-0.92944300	-0.21240200	0.06469700	-0.49194300	0.17285200	-0.68481400	-0.29296900	-0.72778300	-0.30761700	-0.68432600	-0.46704100	-0.00293000	-0.69409200	0.44116200	0.23144500	-0.67919900	0.29931600	0.54956100	-0.69580100	-0.55835000	-0.20532200	-0.79785200	-0.01635700	-0.28051800
2335	23.34000000	-0.92700200	-0.22094700	0.06933600	-0.48608400	0.17187500	-0.68335000	-0.29516600	-0.72558600	-0.32104500	-0.68701200	-0.46386700	-0.00708000	-0.69116200	0.44116200	0.23510700	-0.67797900	0.29736300	0.55371100	-0.69018600	-0.55664100	-0.21826200	-0.79809600	-0.01562500	-0.27514600
2336	23.35000000	-0.92480500	-0.21875000	0.07592800	-0.49780300	0.16845700	-0.67700200	-0.31225600	-0.71313500	-0.32812500	-0.69921900	-0.46337900	-0.00366200	-0.70043900	0.43432600	0.24169900	-0.68603500	0.28857400	0.56518600	-0.69433600	-0.56323200	-0.22290000	-0.80566400	-0.02636700	-0.27002000
2337	23.36000000	-0.92700200	-0.21875000	0.07153300	-0.49292000	0.18554700	-0.69091800	-0.32299800	-0.70263700	-0.33764600	-0.69555700	-0.44799800	-0.01953100	-0.69238300	0.44848600	0.23095700	-0.67480500	0.29785200	0.55395500	-0.68457000	-0.54785200	-0.25293000	-0.79931600	-0.02002000	-0.27856400
2338	23.37000000	-0.92456100	-0.22314500	0.08496100	-0.48388700	0.18554700	-0.68554700	-0.34008800	-0.69433600	-0.34228500	-0.69311500	-0.45019500	-0.01977500	-0.68823200	0.44360400	0.23510700	-0.67065400	0.29418900	0.56396500	-0.67675800	-0.54516600	-0.26464800	-0.79760700	-0.02441400	-0.26977500
2339	23.38000000	-0.92236300	-0.22314500	0.08276400	-0.48510700	0.19140600	-0.68579100	-0.35278300	-0.68798800	-0.34252900	-0.69604500	-0.44189500	-0.02612300	-0.68676800	0.44897500	0.23779300	-0.67065400	0.29687500	0.56567400	-0.66699200	-0.54028300	-0.28466800	-0.79565400	-0.02294900	-0.26928700
